HIERARCHY
ROOT Hips
{
	OFFSET -0.001795 -0.223333 0.028219
	CHANNELS 6 Xposition Yposition Zposition Zrotation Yrotation Xrotation 
	JOINT LeftUpLeg
	{
		OFFSET 0.069520 -0.091406 -0.006815
		CHANNELS 3 Zrotation Yrotation Xrotation
		JOINT LeftLeg
		{
			OFFSET 0.034277 -0.375199 -0.004496
			CHANNELS 3 Zrotation Yrotation Xrotation
			JOINT LeftFoot
			{
				OFFSET -0.013596 -0.397961 -0.043693
				CHANNELS 3 Zrotation Yrotation Xrotation
				JOINT LeftToe
				{
					OFFSET 0.026358 -0.055791 0.119288
					CHANNELS 3 Zrotation Yrotation Xrotation
					End Site
					{
						OFFSET 0.000000 0.000000 0.000000
					}
				}
			}
		}
	}
	JOINT RightUpLeg
	{
		OFFSET -0.067670 -0.090522 -0.004320
		CHANNELS 3 Zrotation Yrotation Xrotation
		JOINT RightLeg
		{
			OFFSET -0.038290 -0.382569 -0.008850
			CHANNELS 3 Zrotation Yrotation Xrotation
			JOINT RightFoot
			{
				OFFSET 0.015774 -0.398415 -0.042312
				CHANNELS 3 Zrotation Yrotation Xrotation
				JOINT RightToe
				{
					OFFSET -0.025372 -0.048144 0.123348
					CHANNELS 3 Zrotation Yrotation Xrotation
					End Site
					{
						OFFSET 0.000000 0.000000 0.000000
					}
				}
			}
		}
	}
	JOINT Spine
	{
		OFFSET -0.002533 0.108963 -0.026696
		CHANNELS 3 Zrotation Yrotation Xrotation
		JOINT Spine1
		{
			OFFSET 0.005487 0.135180 0.001092
			CHANNELS 3 Zrotation Yrotation Xrotation
			JOINT Spine2
			{
				OFFSET 0.001457 0.052922 0.025425
				CHANNELS 3 Zrotation Yrotation Xrotation
				JOINT Neck
				{
					OFFSET -0.002778 0.213870 -0.042857
					CHANNELS 3 Zrotation Yrotation Xrotation
					JOINT Head
					{
						OFFSET 0.005152 0.064970 0.051349
						CHANNELS 3 Zrotation Yrotation Xrotation
						End Site
						{
							OFFSET 0.000000 0.000000 0.000000
						}
					}
				}
				JOINT LeftShoulder
				{
					OFFSET 0.078845 0.121749 -0.034090
					CHANNELS 3 Zrotation Yrotation Xrotation
					JOINT LeftArm
					{
						OFFSET 0.090977 0.030469 -0.008868
						CHANNELS 3 Zrotation Yrotation Xrotation
						JOINT LeftForeArm
						{
							OFFSET 0.259612 -0.012772 -0.027456
							CHANNELS 3 Zrotation Yrotation Xrotation
							JOINT LeftHand
							{
								OFFSET 0.249234 0.008986 -0.001171
								CHANNELS 3 Zrotation Yrotation Xrotation
								End Site
								{
									OFFSET 0.000000 0.000000 0.000000
								}
							}
						}
					}
				}
				JOINT RightShoulder
				{
					OFFSET -0.081759 0.118833 -0.038615
					CHANNELS 3 Zrotation Yrotation Xrotation
					JOINT RightArm
					{
						OFFSET -0.096012 0.032551 -0.009143
						CHANNELS 3 Zrotation Yrotation Xrotation
						JOINT RightForeArm
						{
							OFFSET -0.253742 -0.013329 -0.021401
							CHANNELS 3 Zrotation Yrotation Xrotation
							JOINT RightHand
							{
								OFFSET -0.255298 0.007772 -0.005559
								CHANNELS 3 Zrotation Yrotation Xrotation
								End Site
								{
									OFFSET 0.000000 0.000000 0.000000
								}
							}
						}
					}
				}
			}
		}
	}
}
MOTION
Frames: 9
Frame Time: 0.050000
0.000000 0.950254 0.000000 0.188609 -1.898803 5.956489 1.689620 0.012764 0.688530 -2.384566 0.323701 -4.382898 2.394856 8.519368 13.002206 0.000000 0.000000 0.000000 -2.183159 0.367703 -3.458946 3.536687 -0.344290 0.598903 -5.295224 -15.250754 13.596350 0.000000 0.000000 0.000000 2.005598 0.378680 -7.193583 -1.005121 0.524907 -4.442282 -0.449374 0.430158 9.118381 2.689571 -0.520255 -17.041588 0.000000 0.000000 0.000000 -8.410159 -1.250888 -0.092781 -16.340961 -7.573365 -1.381617 23.721444 -7.161979 -1.073214 0.000000 0.000000 0.000000 3.672695 2.967447 0.809030 17.099510 9.332989 -0.860997 -14.476366 6.991883 -0.371903 0.000000 0.000000 0.000000 
-0.000009 0.948186 -0.000082 0.071028 -2.091718 6.396954 1.443606 -0.018902 0.219871 -1.793981 0.280120 -4.341902 2.688744 8.824582 12.335914 0.000000 0.000000 0.000000 -1.945516 0.364227 -3.424152 3.859408 -0.377915 0.100166 -5.819238 -16.012981 11.983877 0.000000 0.000000 0.000000 1.542114 0.406542 -7.953136 -0.868961 0.446616 -2.959429 0.196367 0.892397 7.946736 1.812607 0.282097 -19.768014 0.000000 0.000000 0.000000 -12.123628 -0.425184 -0.800989 -23.285406 -7.519330 -1.722097 23.668294 -11.197710 -1.757350 0.000000 0.000000 0.000000 8.096852 2.325075 0.278633 22.764950 8.638940 -1.025285 -15.539901 10.121061 -0.730286 0.000000 0.000000 0.000000 
-0.000271 0.947081 0.000088 0.047105 -3.616782 6.590244 1.293532 -0.012528 0.227673 -1.888253 0.294480 -4.406308 3.485365 9.943515 12.307483 0.000000 0.000000 0.000000 -2.158221 0.416809 -3.982937 3.948436 -0.368993 0.492149 -5.202955 -14.938386 11.221552 0.000000 0.000000 0.000000 2.700901 0.510051 -8.540009 -1.968364 0.917323 -3.434243 -0.307025 1.516973 9.251338 3.301613 -0.713218 -18.677884 0.000000 0.000000 0.000000 -15.550270 -0.563171 -0.961249 -29.473605 -5.903720 -2.479623 22.386289 -13.274798 -1.933926 0.000000 0.000000 0.000000 13.059430 3.007009 0.249864 29.145690 7.228518 -1.513142 -16.058348 13.326586 -1.113236 0.000000 0.000000 0.000000 
-0.001103 0.945735 0.000393 0.218710 -3.938045 6.667191 1.242447 0.002614 0.389743 -2.130407 0.320604 -4.745353 3.651765 10.145769 12.106547 0.000000 0.000000 0.000000 -2.078977 0.455841 -4.461398 3.505113 -0.315480 1.192167 -5.219703 -14.893089 10.487273 0.000000 0.000000 0.000000 2.090248 0.537788 -9.304902 -1.958757 0.914693 -2.663844 0.364544 0.139004 9.352362 2.383790 -0.367544 -18.737074 0.000000 0.000000 0.000000 -20.475249 0.152469 -1.328218 -36.925245 -3.696207 -3.772916 22.524806 -16.472048 -2.314785 0.000000 0.000000 0.000000 16.486567 4.921080 0.614391 35.359926 6.565483 -1.794079 -14.962040 14.694667 -1.197841 0.000000 0.000000 0.000000 
-0.002479 0.944976 0.000521 0.424071 -3.657307 6.704727 0.715642 0.018161 0.423691 -1.362735 0.266896 -4.921762 3.564061 10.002017 11.927848 0.000000 0.000000 0.000000 -2.120036 0.452811 -4.426754 3.415828 -0.309463 1.128975 -5.412184 -15.183048 10.185330 0.000000 0.000000 0.000000 1.881407 0.518762 -9.234530 -1.217448 0.586578 -2.487112 -0.389171 0.127635 8.594979 2.332944 -0.356312 -17.946743 0.000000 0.000000 0.000000 -23.770636 -0.464827 -1.327644 -43.951981 -1.561468 -5.083247 20.258421 -19.620818 -2.439553 0.000000 0.000000 0.000000 19.958924 4.557702 0.215854 43.036647 4.994013 -2.588999 -13.255562 17.337736 -1.217995 0.000000 0.000000 0.000000 
-0.004700 0.944049 0.000245 0.534444 -3.328585 6.687396 0.451656 0.002289 0.172726 -0.759105 0.211056 -4.519096 3.514614 9.887994 11.548998 0.000000 0.000000 0.000000 -2.364202 0.443099 -4.288395 3.986853 -0.372862 0.959262 -5.587409 -15.440787 9.893403 0.000000 0.000000 0.000000 1.685705 0.528409 -9.607060 -1.261185 0.603335 -1.023109 0.214464 -1.139435 7.877719 2.134300 -0.279023 -18.964363 0.000000 0.000000 0.000000 -26.489989 -0.305647 -1.246708 -50.474351 -2.169055 -5.646888 17.740356 -20.306342 -2.008486 0.000000 0.000000 0.000000 21.552264 5.802683 0.415482 49.394245 4.760987 -2.880419 -9.770753 17.032187 -0.775309 0.000000 0.000000 0.000000 
-0.007754 0.943471 -0.000939 0.649760 -2.837652 6.148880 0.307539 0.042999 0.574183 -0.223601 0.166829 -4.389844 3.319570 9.572126 11.296699 0.000000 0.000000 0.000000 -2.248160 0.431441 -4.211061 4.056820 -0.381137 1.854888 -5.890777 -15.926162 9.497258 0.000000 0.000000 0.000000 1.626866 0.475113 -8.858993 -0.907049 0.439190 -0.771122 -0.196814 -1.643629 7.862563 2.034786 -0.230707 -19.090574 0.000000 0.000000 0.000000 -27.921990 -1.598560 -0.446154 -55.433527 -2.176743 -6.192738 14.806261 -21.426308 -1.595539 0.000000 0.000000 0.000000 22.835484 7.193547 1.067228 54.381744 4.251966 -3.392958 -6.780138 16.652446 -0.369233 0.000000 0.000000 0.000000 
-0.011712 0.943802 -0.002696 0.426189 -3.329062 5.724209 0.589906 0.026712 0.463431 0.046052 0.112413 -3.428606 3.639024 10.054180 11.312036 0.000000 0.000000 0.000000 -1.811613 0.441053 -4.375942 4.077896 -0.373393 2.731234 -5.680636 -15.540597 9.311690 0.000000 0.000000 0.000000 2.122721 0.454579 -8.044075 -0.982696 0.473516 -0.702329 0.073259 -1.408474 8.680631 2.378459 -0.411314 -19.652090 0.000000 0.000000 0.000000 -28.784474 -2.512411 0.203540 -57.709889 -3.524692 -5.906186 11.011307 -22.104376 -0.938499 0.000000 0.000000 0.000000 23.227547 7.898524 1.450859 57.059067 5.070369 -3.266217 -3.803786 16.903509 0.013331 0.000000 0.000000 0.000000 
-0.016356 0.944638 -0.004468 0.442863 -3.158482 5.462734 1.017994 -0.020762 0.016061 -0.139476 0.092068 -2.355189 3.563184 9.975603 11.486003 0.000000 0.000000 0.000000 -1.458506 0.477111 -4.822140 4.016116 -0.360110 3.871808 -5.792974 -15.757386 9.386859 0.000000 0.000000 0.000000 1.978896 0.389923 -7.147389 -0.591566 0.287477 -0.268910 -0.015342 -1.731542 8.545168 2.099363 -0.216668 -20.390047 0.000000 0.000000 0.000000 -28.597984 -3.403648 0.875716 -58.285040 -4.515421 -5.481595 9.263767 -23.533959 -0.655279 0.000000 0.000000 0.000000 23.145133 9.170101 2.128828 57.865515 5.554060 -3.053405 -3.095925 16.613129 0.099676 0.000000 0.000000 0.000000 
